<svg xmlns="http://www.w3.org/2000/svg" viewBox="0 0 400 120" width="400" height="120">
  <!-- Large cylinder (single server) -->
  <rect x="30" y="18" width="80" height="72" fill="#3b82f6"/>
  <ellipse cx="70" cy="18" rx="40" ry="11" fill="#60a5fa"/>
  <ellipse cx="70" cy="90" rx="40" ry="11" fill="#1d4ed8"/>
  <ellipse cx="70" cy="18" rx="40" ry="11" fill="#60a5fa"/>
  <line x1="30" y1="38" x2="110" y2="38" stroke="#1d4ed8" stroke-width="1.5"/>
  <line x1="30" y1="58" x2="110" y2="58" stroke="#1d4ed8" stroke-width="1.5"/>
  <line x1="30" y1="78" x2="110" y2="78" stroke="#1d4ed8" stroke-width="1.5"/>

  <!-- Arrow -->
  <line x1="125" y1="55" x2="182" y2="55" stroke="#475569" stroke-width="2.5"/>
  <polygon points="182,49 197,55 182,61" fill="#475569"/>

  <!-- Small cylinder 1 -->
  <rect x="205" y="8" width="58" height="52" fill="#3b82f6"/>
  <ellipse cx="234" cy="8" rx="29" ry="8" fill="#60a5fa"/>
  <ellipse cx="234" cy="60" rx="29" ry="8" fill="#1d4ed8"/>
  <ellipse cx="234" cy="8" rx="29" ry="8" fill="#60a5fa"/>
  <line x1="205" y1="25" x2="263" y2="25" stroke="#1d4ed8" stroke-width="1.5"/>
  <line x1="205" y1="42" x2="263" y2="42" stroke="#1d4ed8" stroke-width="1.5"/>

  <!-- Small cylinder 2 -->
  <rect x="283" y="8" width="58" height="52" fill="#3b82f6"/>
  <ellipse cx="312" cy="8" rx="29" ry="8" fill="#60a5fa"/>
  <ellipse cx="312" cy="60" rx="29" ry="8" fill="#1d4ed8"/>
  <ellipse cx="312" cy="8" rx="29" ry="8" fill="#60a5fa"/>
  <line x1="283" y1="25" x2="341" y2="25" stroke="#1d4ed8" stroke-width="1.5"/>
  <line x1="283" y1="42" x2="341" y2="42" stroke="#1d4ed8" stroke-width="1.5"/>

  <!-- Labels -->
  <text x="70" y="112" text-anchor="middle" font-family="sans-serif" font-size="11" fill="#475569">One server</text>
  <text x="273" y="80" text-anchor="middle" font-family="sans-serif" font-size="11" fill="#475569">Multiple servers</text>
</svg>
